<mxfile host="app.diagrams.net" modified="2023-05-16T01:22:52.043Z" agent="Mozilla/5.0 (Windows NT 10.0; Win64; x64) AppleWebKit/537.36 (KHTML, like Gecko) Chrome/113.0.0.0 Safari/537.36" version="21.2.9" etag="Ry6ki1J3vW_RFz1MKyCD" type="github">
  <diagram name="페이지-1" id="dl_rG2_ACNzKKD81cYbt">
    <mxGraphModel>
      <root>
        <mxCell id="0" />
        <mxCell id="1" parent="0" />
      </root>
    </mxGraphModel>
  </diagram>
</mxfile>
